<svg width="24" height="25" viewBox="0 0 24 25" fill="none" xmlns="http://www.w3.org/2000/svg">
<path fill-rule="evenodd" clip-rule="evenodd" d="M10.2992 5.27669C10.2992 5.08548 10.1227 4.94307 9.93578 4.98345L4.32914 6.19494C3.46914 6.38494 2.86914 7.13493 2.86914 8.00493V11.4549C2.86914 11.6206 3.00346 11.7549 3.16914 11.7549H9.99914C10.1649 11.7549 10.2992 11.6206 10.2992 11.4549V5.27669Z" fill="white"/>
<path fill-rule="evenodd" clip-rule="evenodd" d="M20.4408 3.4252C20.0008 3.0652 19.4308 2.9352 18.8808 3.0552L11.9597 4.54455C11.8589 4.56624 11.8008 4.67209 11.8008 4.7752V11.4552C11.8008 11.6209 11.9351 11.7552 12.1008 11.7552H20.8308C20.9965 11.7552 21.1308 11.6209 21.1308 11.4552V4.8752C21.1308 4.3052 20.8808 3.7752 20.4408 3.4252Z" fill="white"/>
<path fill-rule="evenodd" clip-rule="evenodd" d="M3.16914 13.2559C3.00345 13.2559 2.86914 13.3902 2.86914 13.5559V17.0059C2.86914 17.8859 3.46914 18.6359 4.33914 18.8259L9.93567 20.0372C10.1225 20.0777 10.2991 19.9352 10.2991 19.744V13.5559C10.2991 13.3902 10.1648 13.2559 9.99913 13.2559H3.16914Z" fill="white"/>
<path fill-rule="evenodd" clip-rule="evenodd" d="M11.8008 20.2459C11.8008 20.3418 11.8563 20.4444 11.9501 20.4647L18.8808 21.9659C19.0108 21.9959 19.1408 22.0059 19.2708 22.0059C19.6908 22.0059 20.1108 21.8659 20.4408 21.5959C20.8808 21.2359 21.1308 20.7159 21.1308 20.1459V13.5559C21.1308 13.3902 20.9965 13.2559 20.8308 13.2559H12.1008C11.9351 13.2559 11.8008 13.3902 11.8008 13.5559V20.2459Z" fill="white"/>
</svg>
