<svg width="29" height="30" viewBox="0 0 29 30" fill="none" xmlns="http://www.w3.org/2000/svg">
<path d="M14.5 29.6629C22.5081 29.6629 29 23.0226 29 14.8315C29 6.64027 22.5081 0 14.5 0C6.49187 0 0 6.64027 0 14.8315C0 23.0226 6.49187 29.6629 14.5 29.6629Z" fill="#0091EA"/>
<path d="M23.3952 13.0742C23.2725 10.2662 21.0178 8.03711 18.2442 8.03711C16.7065 8.03711 15.3197 8.73188 14.3763 9.82229C13.4329 8.73188 12.0461 8.03711 10.5084 8.03711C7.79139 8.03711 5.56498 10.1793 5.36687 12.9198C5.35743 12.9777 5.35742 13.0549 5.35742 13.1225V19.0763C5.35742 19.8096 5.9329 20.3983 6.64988 20.3983H6.67818C7.39516 20.3983 7.97064 19.8096 7.97064 19.0763V13.3154H7.98007C7.98007 11.868 9.13101 10.6908 10.5461 10.6908C11.9612 10.6908 13.1121 11.868 13.1121 13.3154H13.1216V18.1789C13.1216 18.9122 13.697 19.5009 14.414 19.5009H14.4423C15.1593 19.5009 15.7348 18.9122 15.7348 18.1789V13.3058C15.7442 11.8584 16.8857 10.7004 18.3008 10.7004C19.7159 10.7004 20.8669 11.8777 20.8669 13.3251H20.8763V19.0956C20.8763 19.8193 21.4518 20.3983 22.1499 20.3983H22.1782C22.8857 20.3983 23.4518 19.8096 23.4518 19.0956V13.2093C23.3952 13.1418 23.3952 13.1128 23.3952 13.0742Z" fill="white"/>
<path d="M18.5175 20.9077C18.4609 20.8112 18.2722 21.0042 18.2722 21.0042C17.5552 21.7955 16.0741 22.3069 14.5364 22.3069C12.9986 22.3069 11.5269 21.7955 10.8005 21.0042C10.8005 21.0042 10.6118 20.8016 10.5552 20.9077C10.4798 21.0235 10.593 21.2068 10.593 21.2068C11.5081 22.5578 12.9043 23.1657 14.5364 23.1657C16.1684 23.1657 17.5647 22.5578 18.4798 21.2068C18.4892 21.2068 18.593 21.0235 18.5175 20.9077Z" fill="white"/>
</svg>
